<?xml version="1.0" standalone="no"?>
<svg xmlns:xlink="http://www.w3.org/1999/xlink" id="wave" style="transform:rotate(0deg); transition: 0.3s" viewBox="0 0 1440 230" version="1.1" xmlns="http://www.w3.org/2000/svg"><defs><linearGradient id="sw-gradient-0" x1="0" x2="0" y1="1" y2="0"><stop stop-color="rgba(0, 119, 255, 1)" offset="0%"/><stop stop-color="rgba(255, 255, 255, 0)" offset="100%"/></linearGradient></defs><path style="transform:translate(0, 0px); opacity:1" fill="url(#sw-gradient-0)" d="M0,115L60,130.3C120,146,240,176,360,184C480,192,600,176,720,141.8C840,107,960,54,1080,61.3C1200,69,1320,138,1440,149.5C1560,161,1680,115,1800,111.2C1920,107,2040,146,2160,145.7C2280,146,2400,107,2520,103.5C2640,100,2760,130,2880,130.3C3000,130,3120,100,3240,84.3C3360,69,3480,69,3600,65.2C3720,61,3840,54,3960,49.8C4080,46,4200,46,4320,42.2C4440,38,4560,31,4680,30.7C4800,31,4920,38,5040,61.3C5160,84,5280,123,5400,126.5C5520,130,5640,100,5760,103.5C5880,107,6000,146,6120,145.7C6240,146,6360,107,6480,88.2C6600,69,6720,69,6840,57.5C6960,46,7080,23,7200,19.2C7320,15,7440,31,7560,30.7C7680,31,7800,15,7920,42.2C8040,69,8160,138,8280,161C8400,184,8520,161,8580,149.5L8640,138L8640,230L8580,230C8520,230,8400,230,8280,230C8160,230,8040,230,7920,230C7800,230,7680,230,7560,230C7440,230,7320,230,7200,230C7080,230,6960,230,6840,230C6720,230,6600,230,6480,230C6360,230,6240,230,6120,230C6000,230,5880,230,5760,230C5640,230,5520,230,5400,230C5280,230,5160,230,5040,230C4920,230,4800,230,4680,230C4560,230,4440,230,4320,230C4200,230,4080,230,3960,230C3840,230,3720,230,3600,230C3480,230,3360,230,3240,230C3120,230,3000,230,2880,230C2760,230,2640,230,2520,230C2400,230,2280,230,2160,230C2040,230,1920,230,1800,230C1680,230,1560,230,1440,230C1320,230,1200,230,1080,230C960,230,840,230,720,230C600,230,480,230,360,230C240,230,120,230,60,230L0,230Z"/></svg>